<?xml version="1.0" encoding="UTF-8" standalone="no"?>
<!DOCTYPE svg PUBLIC "-//W3C//DTD SVG 1.1//EN" "http://www.w3.org/Graphics/SVG/1.1/DTD/svg11.dtd">
<svg width="100%" height="100%" viewBox="0 0 1136 1136" version="1.1" xmlns="http://www.w3.org/2000/svg" xmlns:xlink="http://www.w3.org/1999/xlink" xml:space="preserve" xmlns:serif="http://www.serif.com/" style="fill-rule:evenodd;clip-rule:evenodd;stroke-linejoin:round;stroke-miterlimit:2;">
    <g transform="matrix(1,0,0,1,-1185.99,-672.216)">
        <path id="Bildzeichen-magenta" serif:id="Bildzeichen magenta" d="M1753.94,672.216C2067.4,672.216 2321.89,926.7 2321.89,1240.15C2321.89,1553.61 2067.4,1808.1 1753.94,1808.1C1440.47,1808.1 1185.99,1553.61 1185.99,1240.15C1185.99,926.7 1440.47,672.216 1753.94,672.216ZM1753.95,758.001C1487.88,758.001 1271.86,974.014 1271.86,1240.08C1271.86,1506.14 1487.88,1722.15 1753.95,1722.15C2020.01,1722.15 2236.03,1506.14 2236.03,1240.08C2236.03,974.014 2020.01,758.001 1753.95,758.001ZM2025.72,1124.69L2025.72,1355.46L1963.43,1355.46L1963.43,1124.69L2025.72,1124.69ZM1762.16,1170.32L1785.39,1170.3C1850.26,1170.3 1858.79,1215.18 1858.92,1237.67C1859.29,1305.69 1804.55,1310.57 1787.15,1309.83L1762.15,1309.83L1762.16,1170.32ZM1699.86,1355.46L1786.91,1355.64C1889.25,1355.64 1923.51,1306.07 1923.51,1237.88C1923.51,1169.68 1890.37,1124.51 1785.78,1124.51L1699.86,1124.69L1699.86,1355.46ZM1482.17,1355.46L1665.03,1355.46L1665.03,1309.83L1549.82,1309.83L1664.37,1173.62L1664.37,1124.69L1485.19,1124.69L1485.19,1170.32L1593.36,1170.32L1482.17,1306.53L1482.17,1355.46Z" style="fill:rgb(212,54,132);"/>
    </g>
</svg>
